<?xml version="1.0" standalone="no"?>
<!DOCTYPE svg PUBLIC "-//W3C//DTD SVG 20010904//EN"
 "http://www.w3.org/TR/2001/REC-SVG-20010904/DTD/svg10.dtd">
<svg version="1.0" xmlns="http://www.w3.org/2000/svg"
 width="700.000000pt" height="700.000000pt" viewBox="0 0 700.000000 700.000000"
 preserveAspectRatio="xMidYMid meet">
<metadata>
Created by potrace 1.11, written by Peter Selinger 2001-2013
</metadata>
<g transform="translate(0.000000,700.000000) scale(0.100000,-0.100000)"
fill="#000000" stroke="none">
<path d="M3815 6983 c-77 -16 -186 -67 -249 -116 -216 -167 -297 -455 -202
-722 32 -88 186 -572 186 -583 0 -6 -141 -56 -312 -112 -172 -55 -344 -111
-383 -125 -188 -63 -607 -196 -610 -193 -1 1 -53 156 -114 343 -120 370 -147
429 -240 523 -258 260 -671 247 -915 -30 -109 -124 -168 -319 -145 -484 9 -64
30 -134 139 -469 40 -121 76 -232 80 -247 l8 -26 -221 -72 c-327 -106 -468
-155 -507 -176 -158 -85 -273 -236 -314 -414 -20 -86 -14 -235 12 -317 60
-190 207 -342 398 -412 85 -31 238 -39 324 -16 66 17 493 154 563 181 20 7 37
12 37 9 0 -2 16 3 35 11 47 19 63 18 70 -8 9 -29 184 -573 280 -868 118 -360
135 -414 132 -416 -1 -1 -144 -48 -317 -104 -356 -115 -395 -130 -465 -178
-230 -158 -328 -452 -237 -716 108 -314 436 -490 744 -399 137 40 163 48 416
131 214 70 244 78 251 63 5 -9 48 -137 95 -286 48 -148 99 -301 113 -340 67
-181 207 -318 391 -382 67 -24 92 -27 197 -27 103 1 131 5 193 27 101 35 172
80 250 159 124 123 186 282 177 452 -4 98 -6 102 -153 554 -79 239 -80 244
-58 252 11 5 176 59 366 121 190 61 377 122 415 134 221 73 508 165 510 163 1
-2 10 -28 19 -58 94 -301 211 -640 238 -687 18 -32 64 -90 103 -129 317 -318
866 -195 1024 230 28 77 36 123 34 221 0 81 -14 137 -73 315 -67 202 -160 493
-158 495 2 2 48 17 103 35 55 18 147 48 205 67 58 19 112 36 120 38 62 14 263
91 314 119 196 110 321 333 310 558 -3 71 -5 82 -19 143 -39 161 -171 319
-328 394 -125 60 -241 78 -366 59 -47 -7 -626 -188 -698 -218 -18 -7 -25 -5
-32 8 -5 9 -52 152 -106 317 -110 339 -135 416 -241 743 -42 128 -75 234 -73
236 2 1 78 26 169 56 354 113 497 162 542 184 238 118 373 381 336 650 -36
257 -255 479 -513 521 -59 9 -176 7 -226 -4 -39 -9 -285 -87 -587 -187 -57
-19 -105 -34 -107 -34 -2 0 -34 93 -71 208 -88 273 -133 413 -144 437 -5 11
-11 30 -15 42 -11 39 -84 143 -137 194 -148 142 -363 204 -563 162z m166
-2733 c16 -52 61 -189 99 -305 156 -479 282 -871 284 -878 1 -10 -64 -34 -269
-100 -403 -131 -927 -301 -979 -318 -32 -11 -59 -19 -60 -17 -3 5 -38 113
-126 388 -45 140 -85 264 -90 275 -5 11 -45 135 -90 275 -45 140 -90 280 -101
310 -10 30 -15 57 -11 61 4 4 63 25 132 47 394 127 780 253 960 311 137 45
207 64 212 57 4 -6 22 -54 39 -106z"/>
</g>
</svg>
